<?xml version="1.0" encoding="utf-8"?>
<!-- Generator: Adobe Illustrator 24.1.0, SVG Export Plug-In . SVG Version: 6.00 Build 0)  -->
<svg version="1.1" id="Capa_1" xmlns="http://www.w3.org/2000/svg" xmlns:xlink="http://www.w3.org/1999/xlink" x="0px" y="0px"
	 viewBox="0 0 83.8 14.6" style="enable-background:new 0 0 83.8 14.6;" xml:space="preserve">
<style type="text/css">
	.st0{fill:#8020BF;}
	.st1{fill:#FFFFFF;}
</style>
<polygon class="st0" points="34.8,9.6 36.8,9.6 36.8,10 35.3,10 35.3,10.7 36.6,10.7 36.6,11.1 35.3,11.1 35.3,11.8 36.8,11.8 
	36.8,12.2 34.8,12.2 "/>
<polygon class="st0" points="37.3,9.6 37.7,9.6 39.1,11.3 39.1,9.6 39.6,9.6 39.6,12.2 39.2,12.2 37.8,10.4 37.8,12.2 37.3,12.2 "/>
<polygon class="st0" points="41.1,9.6 41.6,9.6 41.6,11.8 42.9,11.8 42.9,12.2 41.1,12.2 "/>
<path class="st0" d="M44.2,9.5h0.5l1.1,2.7h-0.5l-0.3-0.6h-1.2l-0.3,0.6h-0.5L44.2,9.5z M44.9,11.2l-0.4-1.1L44,11.2H44.9z"/>
<polygon class="st1" points="46.7,9.5 47.4,9.5 48.1,10.6 48.7,9.5 49.4,9.5 49.4,12.2 48.8,12.2 48.8,10.5 48.1,11.6 48.1,11.6 
	47.3,10.5 47.3,12.2 46.7,12.2 "/>
<path class="st1" d="M50.8,9.5h0.6l1.1,2.7h-0.7l-0.2-0.6h-1.1l-0.2,0.6h-0.6L50.8,9.5z M51.5,11.1l-0.3-0.9l-0.3,0.9H51.5z"/>
<polygon class="st1" points="52.9,9.5 53.5,9.5 54.7,11.1 54.7,9.5 55.3,9.5 55.3,12.2 54.8,12.2 53.5,10.6 53.5,12.2 52.9,12.2 "/>
<path class="st1" d="M57,12.2c-0.2,0-0.4,0-0.6-0.1c-0.2-0.1-0.3-0.2-0.4-0.3c-0.1-0.1-0.2-0.3-0.3-0.4c-0.1-0.2-0.1-0.3-0.1-0.5v0
	c0-0.2,0-0.4,0.1-0.5c0.1-0.2,0.2-0.3,0.3-0.4c0.1-0.1,0.3-0.2,0.4-0.3c0.2-0.1,0.4-0.1,0.6-0.1c0.2,0,0.4,0,0.6,0.1
	c0.2,0.1,0.3,0.2,0.4,0.3c0.1,0.1,0.2,0.3,0.3,0.4c0.1,0.2,0.1,0.3,0.1,0.5v0c0,0.2,0,0.4-0.1,0.5c-0.1,0.2-0.2,0.3-0.3,0.4
	c-0.1,0.1-0.3,0.2-0.4,0.3C57.4,12.2,57.2,12.2,57,12.2 M57,11.7c0.1,0,0.2,0,0.3-0.1c0.1,0,0.2-0.1,0.2-0.2
	c0.1-0.1,0.1-0.2,0.2-0.3c0-0.1,0.1-0.2,0.1-0.4v0c0-0.1,0-0.2-0.1-0.4c0-0.1-0.1-0.2-0.2-0.3c-0.1-0.1-0.1-0.1-0.2-0.2
	C57.2,10,57.1,10,57,10c-0.1,0-0.2,0-0.3,0.1c-0.1,0-0.2,0.1-0.2,0.2c-0.1,0.1-0.1,0.2-0.2,0.3c0,0.1-0.1,0.2-0.1,0.4v0
	c0,0.1,0,0.2,0.1,0.4c0,0.1,0.1,0.2,0.2,0.3c0.1,0.1,0.1,0.1,0.2,0.2C56.8,11.7,56.9,11.7,57,11.7"/>
<polygon class="st1" points="20.1,4.3 18.4,4.3 18.4,3 23.5,3 23.5,4.3 21.8,4.3 21.8,8.8 20.1,8.8 "/>
<path class="st1" d="M25.3,3H27l2.4,5.8h-1.8l-0.4-1h-2.1l-0.4,1H23L25.3,3z M26.8,6.6l-0.6-1.7l-0.6,1.7H26.8z"/>
<path class="st1" d="M32.3,8.9c-0.4,0-0.8-0.1-1.2-0.2c-0.4-0.1-0.7-0.3-1-0.6c-0.3-0.3-0.5-0.6-0.6-0.9c-0.2-0.4-0.2-0.8-0.2-1.2
	V5.9c0-0.4,0.1-0.9,0.2-1.2c0.2-0.4,0.4-0.7,0.7-0.9c0.3-0.3,0.6-0.5,1-0.6c0.4-0.1,0.8-0.2,1.2-0.2c0.5,0,1,0.1,1.3,0.2
	c0.4,0.2,0.7,0.4,1,0.7l-1.1,1c-0.1-0.1-0.3-0.3-0.5-0.4c-0.2-0.1-0.4-0.2-0.7-0.2c-0.4,0-0.7,0.1-1,0.4C31.2,5,31,5.4,31,5.9v0
	c0,0.3,0,0.5,0.1,0.7c0.1,0.2,0.2,0.4,0.3,0.5c0.1,0.1,0.3,0.2,0.4,0.3c0.2,0.1,0.3,0.1,0.5,0.1c0.3,0,0.5-0.1,0.7-0.2
	c0.2-0.1,0.4-0.2,0.5-0.4l1.1,1c-0.3,0.3-0.6,0.5-1,0.7C33.3,8.8,32.9,8.9,32.3,8.9"/>
<path class="st1" d="M37.9,8.9c-0.5,0-0.9-0.1-1.2-0.2c-0.4-0.1-0.7-0.3-1-0.6c-0.3-0.3-0.5-0.6-0.6-0.9c-0.2-0.4-0.2-0.8-0.2-1.2
	V5.8c0-0.4,0.1-0.8,0.2-1.2c0.2-0.4,0.4-0.7,0.6-0.9c0.3-0.3,0.6-0.5,1-0.6c0.4-0.1,0.8-0.2,1.2-0.2c0.5,0,0.9,0.1,1.2,0.2
	c0.4,0.1,0.7,0.3,1,0.6c0.3,0.3,0.5,0.6,0.6,0.9C41,5,41,5.4,41,5.8V6c0,0.4-0.1,0.8-0.2,1.2c-0.2,0.4-0.4,0.7-0.6,0.9
	c-0.3,0.3-0.6,0.5-1,0.6C38.8,8.8,38.4,8.9,37.9,8.9 M37.9,7.6c0.4,0,0.7-0.1,1-0.4c0.2-0.3,0.4-0.7,0.4-1.2V5.9
	c0-0.5-0.1-0.9-0.4-1.2c-0.2-0.3-0.6-0.4-1-0.4c-0.4,0-0.7,0.1-1,0.4c-0.2,0.3-0.4,0.7-0.4,1.2v0.1c0,0.5,0.1,0.9,0.4,1.2
	C37.2,7.4,37.5,7.6,37.9,7.6"/>
<polygon class="st1" points="41.8,3 43.4,3 45.7,5.9 45.7,3 47.3,3 47.3,8.8 45.8,8.8 43.5,5.8 43.5,8.8 41.8,8.8 "/>
<polygon class="st1" points="48.3,3 52.9,3 52.9,4.3 50,4.3 50,5.2 52.6,5.2 52.6,6.5 50,6.5 50,7.5 53,7.5 53,8.8 48.3,8.8 "/>
<path class="st1" d="M56,8.9c-0.5,0-1-0.1-1.4-0.2c-0.5-0.1-0.9-0.4-1.3-0.7l0.9-1.1c0.3,0.2,0.6,0.4,0.9,0.5
	c0.3,0.1,0.6,0.2,0.9,0.2c0.2,0,0.4,0,0.5-0.1c0.1-0.1,0.2-0.2,0.2-0.3v0c0-0.1,0-0.1,0-0.2c0,0-0.1-0.1-0.2-0.1
	c-0.1,0-0.2-0.1-0.3-0.1c-0.1,0-0.3-0.1-0.5-0.2c-0.3-0.1-0.6-0.2-0.9-0.3c-0.3-0.1-0.5-0.2-0.7-0.4c-0.2-0.1-0.3-0.3-0.4-0.5
	c-0.1-0.2-0.2-0.4-0.2-0.7v0c0-0.3,0.1-0.5,0.2-0.7c0.1-0.2,0.3-0.4,0.5-0.6C54.4,3.3,54.7,3.1,55,3c0.3-0.1,0.6-0.1,1-0.1
	c0.5,0,0.9,0.1,1.3,0.2c0.4,0.1,0.8,0.3,1.1,0.5l-0.9,1.1c-0.2-0.2-0.5-0.3-0.7-0.4c-0.3-0.1-0.5-0.1-0.8-0.1c-0.2,0-0.3,0-0.5,0.1
	c-0.1,0.1-0.2,0.2-0.2,0.3v0c0,0.1,0,0.1,0,0.2c0,0,0.1,0.1,0.2,0.1c0.1,0,0.2,0.1,0.3,0.2c0.1,0.1,0.3,0.1,0.5,0.2
	c0.3,0.1,0.6,0.2,0.9,0.3c0.3,0.1,0.5,0.2,0.6,0.4c0.2,0.1,0.3,0.3,0.4,0.5c0.1,0.2,0.1,0.4,0.1,0.6v0c0,0.3-0.1,0.5-0.2,0.8
	C58.1,8,58,8.2,57.8,8.4c-0.2,0.2-0.5,0.3-0.8,0.4C56.7,8.8,56.4,8.9,56,8.9"/>
<polygon class="st0" points="18.3,1.7 17.7,1.7 17.7,1.1 17.4,1.1 17.4,1.7 16.8,1.7 16.8,2 17.4,2 17.4,2.6 17.7,2.6 17.7,2 
	18.3,2 "/>
<polygon class="st0" points="18.3,13.1 17.7,13.1 17.7,12.6 17.4,12.6 17.4,13.1 16.8,13.1 16.8,13.4 17.4,13.4 17.4,14 17.7,14 
	17.7,13.4 18.3,13.4 "/>
<polygon class="st0" points="60,1.7 59.5,1.7 59.5,1.1 59.2,1.1 59.2,1.7 58.6,1.7 58.6,2 59.2,2 59.2,2.6 59.5,2.6 59.5,2 60,2 "/>
<polygon class="st0" points="60,13.1 59.5,13.1 59.5,12.6 59.2,12.6 59.2,13.1 58.6,13.1 58.6,13.4 59.2,13.4 59.2,14 59.5,14 
	59.5,13.4 60,13.4 "/>
</svg>
